<svg xmlns="http://www.w3.org/2000/svg" width="64" height="64" viewBox="0 0 64 64">
  <defs>
    <linearGradient id="g" x1="0" y1="0" x2="1" y2="1">
      <stop offset="0" stop-color="#0d6efd"/>
      <stop offset="1" stop-color="#20c997"/>
    </linearGradient>
  </defs>
  <rect x="6" y="6" width="52" height="52" rx="14" fill="url(#g)"/>
  <path d="M20 33c0-7 5-13 12-13s12 6 12 13-5 13-12 13-12-6-12-13Z" fill="rgba(255,255,255,0.18)"/>
  <path d="M22 33c0-6 4-11 10-11s10 5 10 11-4 11-10 11-10-5-10-11Z" fill="rgba(255,255,255,0.18)"/>
  <path d="M26 32h12v3H26z" fill="#fff"/>
  <path d="M31.3 24.5h1.4v17h-1.4z" fill="#fff"/>
</svg>